#!OML:ASF H:\Dans Jumps\Project 1\Capture day 1\Session 1\subject.ASF
:FULLY-SPECIFIED
:DEGREES
686
root 0.0840168 17.773 -6.35884 7.11622 -0.266009 -1.11585
lowerback -1.66567 -0.0130099 -0.158816
upperback 4.19793 -0.0802128 1.50397
thorax 5.27536 -0.0814343 1.64157
lowerneck -10.783 0.319441 -1.69887
upperneck 38.6649 0.676727 0.706875
head 15.3415 0.137848 0.71283
rclavicle 0 -5.56597e-015
rhumerus -22.062 -19.84 -77.795
rradius 20.6267
rwrist 43.6258
rhand -18.153 -24.7341
rfingers 7.12502
rthumb 8.12267 -54.558
lclavicle 0 -5.56597e-015
lhumerus -18.7564 4.14572 81.8653
lradius 15.5689
lwrist -7.76397
lhand -24.2938 -3.58401
lfingers 7.12502
lthumb 2.19359 26.3845
rfemur -15.973 -2.61458 20.3877
rtibia 21.5919
rfoot -12.1696 -2.68723
rtoes 15.6128
lfemur -13.767 6.54076 -18.9596
ltibia 17.4428
lfoot -8.81352 7.35444
ltoes 8.27481
687
root 0.0850184 17.7729 -6.35969 7.10783 -0.275413 -1.11369
lowerback -1.66254 -0.00802074 -0.159103
upperback 4.18903 -0.073292 1.50159
thorax 5.26401 -0.0778633 1.63963
lowerneck -10.7804 0.322564 -1.69627
upperneck 38.6756 0.681427 0.705501
head 15.3462 0.139987 0.712612
rclavicle 5.96354e-016 -1.19271e-014
rhumerus -22.0259 -19.8771 -77.8108
rradius 20.6061
rwrist 43.6815
rhand -18.142 -24.7011
rfingers 7.12502
rthumb 8.13331 -54.5246
lclavicle 5.96354e-016 -1.19271e-014
lhumerus -18.6963 4.25238 81.9191
lradius 15.5856
lwrist -7.7745
lhand -24.2882 -3.61322
lfingers 7.12502
lthumb 2.19902 26.3552
rfemur -15.9701 -2.60947 20.3809
rtibia 21.5946
rfoot -12.1677 -2.68407
rtoes 15.6147
lfemur -13.7581 6.54889 -18.9657
ltibia 17.4383
lfoot -8.80908 7.35291
ltoes 8.26508
688
root 0.0861044 17.7729 -6.36059 7.10138 -0.283749 -1.1109
lowerback -1.66009 -0.00363428 -0.1567
upperback 4.17883 -0.0672103 1.49763
thorax 5.25169 -0.0745505 1.63448
lowerneck -10.7758 0.326622 -1.69777
upperneck 38.6805 0.686367 0.709959
head 15.3475 0.142454 0.71558
rclavicle 3.47873e-015 1.31198e-014
rhumerus -21.9847 -19.8929 -77.8404
rradius 20.5885
rwrist 43.7384
rhand -18.1255 -24.6633
rfingers 7.12502
rthumb 8.14917 -54.4861
lclavicle 3.47873e-015 1.31198e-014
lhumerus -18.6316 4.31828 81.988
lradius 15.6017
lwrist -7.7364
lhand -24.287 -3.64329
lfingers 7.12502
lthumb 2.2002 26.3251
rfemur -15.9701 -2.60665 20.3733
rtibia 21.5985
rfoot -12.1656 -2.67966
rtoes 15.6117
lfemur -13.7515 6.55698 -18.9732
ltibia 17.433
lfoot -8.8025 7.35144
ltoes 8.24974
689
root 0.0873073 17.7728 -6.36151 7.09604 -0.291585 -1.10579
lowerback -1.65895 0.000151916 -0.153737
upperback 4.16852 -0.0618891 1.49206
thorax 5.24003 -0.0715578 1.62729
lowerneck -10.7699 0.331723 -1.70357
upperneck 38.68 0.69232 0.718839
head 15.3456 0.145361 0.721294
rclavicle -3.18055e-015 -1.53064e-014
rhumerus -21.9391 -19.8844 -77.8836
rradius 20.577
rwrist 43.7856
rhand -18.1045 -24.6205
rfingers 7.12502
rthumb 8.16948 -54.4425
lclavicle -3.18055e-015 -1.53064e-014
lhumerus -18.5599 4.34238 82.0722
lradius 15.6161
lwrist -7.64951
lhand -24.2927 -3.67827
lfingers 7.12502
lthumb 2.19463 26.2902
rfemur -15.9723 -2.60879 20.363
rtibia 21.6037
rfoot -12.1633 -2.67086
rtoes 15.6033
lfemur -13.7461 6.56281 -18.9837
ltibia 17.4275
lfoot -8.79479 7.35139
ltoes 8.23748
